# xmcd CD database file
#
# Track frame offsets:
#	150
#	6803
#	20352
#	33808
#	44533
#	56316
#	67391
#	83949
#	95345
#	105518
#	120660
#	134850
#	147928
#	159657
#	172747
#	183293
#	198201
#	209924
#	223229
#	232073
#	245781
#	258241
#	271679
#	280146
#	294107
#	306843
#	321096
#
# Disc length: 4437 seconds
#
# Revision: 0
# Processed by: cddbd v1.5PL3 Copyright (c) Steve Scherf et al.
# Submitted via: CDex 1.51
#
DISCID=9011531b
DTITLE=Peggy Lee and Nat King Cole - Peggy Lee and Nat King Cole
DYEAR=1900
DGENRE=Jazz
TTITLE0=You Can Depend On Me
TTITLE1=What Can I Say After I Say I'm Sorry
TTITLE2=I've Had My Moments
TTITLE3=When I Take My Sugar To Tea
TTITLE4=Sugar
TTITLE5=You're The Cream In My Coffee
TTITLE6=I Should Care
TTITLE7=Too Marvellous For Words
TTITLE8=Someday Sweetheart
TTITLE9=Embraceable You
TTITLE10=September In The Rain
TTITLE11=I'm Through With Love
TTITLE12=That Old Gang Of Mine
TTITLE13=Gee Baby, Ain't I Good To You ?
TTITLE14=Nice Work If You Can Get It
TTITLE15=The Man I Love
TTITLE16=I'm Beginning To See The Light
TTITLE17=What Is This Thing Called Love?
TTITLE18=Gone With The Wind
TTITLE19=Easy Listening Blues
TTITLE20=Don't Blame Me
TTITLE21=For All We Know
TTITLE22=Baby, Won't You Please Come Home
TTITLE23=This Autumn
TTITLE24=My Last Affair
TTITLE25=Mother Nature and Father Time
TTITLE26=I'm Confessin' That I Love You
EXTD=
EXTT0=
EXTT1=
EXTT2=
EXTT3=
EXTT4=
EXTT5=
EXTT6=
EXTT7=
EXTT8=
EXTT9=
EXTT10=
EXTT11=
EXTT12=
EXTT13=
EXTT14=
EXTT15=
EXTT16=
EXTT17=
EXTT18=
EXTT19=
EXTT20=
EXTT21=
EXTT22=
EXTT23=
EXTT24=
EXTT25=
EXTT26=
PLAYORDER=
